<?xml version="1.0" standalone="no"?>
<!DOCTYPE svg PUBLIC "-//W3C//DTD SVG 20010904//EN"
 "http://www.w3.org/TR/2001/REC-SVG-20010904/DTD/svg10.dtd">
<svg version="1.0" xmlns="http://www.w3.org/2000/svg"
 width="512.000000pt" height="512.000000pt" viewBox="0 0 512.000000 512.000000"
 preserveAspectRatio="xMidYMid meet">

<g transform="translate(0.000000,512.000000) scale(0.100000,-0.100000)"
fill="#000000" stroke="none">
<path d="M2331 5110 c-743 -72 -1412 -457 -1849 -1062 -240 -334 -393 -715
-459 -1145 -23 -150 -23 -536 0 -686 102 -670 429 -1244 944 -1654 368 -293
769 -466 1253 -540 142 -21 508 -24 650 -4 832 114 1514 577 1929 1307 145
255 247 562 298 894 24 158 24 518 0 680 -85 574 -329 1062 -732 1465 -400
400 -896 649 -1457 730 -127 19 -451 27 -577 15z m410 -510 c488 -48 921 -251
1264 -595 803 -803 803 -2087 0 -2890 -802 -803 -2087 -803 -2890 0 -945 944
-752 2501 395 3201 361 220 815 324 1231 284z"/>
<path d="M1457 3663 l-177 -178 462 -462 463 -463 -463 -463 -462 -462 177
-178 178 -177 462 462 463 463 463 -463 462 -462 178 177 177 178 -462 462
-463 463 463 463 462 462 -177 178 -178 177 -462 -462 -463 -463 -463 463
-462 462 -178 -177z"/>
</g>
</svg>
